<svg xmlns="http://www.w3.org/2000/svg" xmlns:xlink="http://www.w3.org/1999/xlink" width="500" zoomAndPan="magnify" viewBox="0 0 375 374.999991" height="500" preserveAspectRatio="xMidYMid meet" version="1.2"><defs><clipPath id="ed4d8372d4"><path d="M 2.503906 108.273438 L 196 108.273438 L 196 266.523438 L 2.503906 266.523438 Z M 2.503906 108.273438 "/></clipPath><clipPath id="f602d72077"><path d="M 178 108.273438 L 372.253906 108.273438 L 372.253906 266.523438 L 178 266.523438 Z M 178 108.273438 "/></clipPath></defs><g id="16cf95e67e"><path style=" stroke:none;fill-rule:nonzero;fill:#022e43;fill-opacity:1;" d="M 135.835938 176.34375 C 135.835938 176.960938 135.777344 177.574219 135.65625 178.183594 C 135.535156 178.789062 135.355469 179.378906 135.121094 179.953125 C 134.882812 180.523438 134.589844 181.070312 134.246094 181.582031 C 133.902344 182.097656 133.511719 182.574219 133.074219 183.011719 C 132.636719 183.453125 132.160156 183.84375 131.644531 184.1875 C 131.128906 184.53125 130.585938 184.820312 130.015625 185.058594 C 129.441406 185.296875 128.851562 185.472656 128.246094 185.59375 C 127.636719 185.714844 127.023438 185.777344 126.402344 185.777344 C 125.785156 185.777344 125.171875 185.714844 124.5625 185.59375 C 123.957031 185.472656 123.367188 185.296875 122.792969 185.058594 C 122.222656 184.820312 121.679688 184.53125 121.164062 184.1875 C 120.648438 183.84375 120.171875 183.453125 119.734375 183.011719 C 119.296875 182.574219 118.902344 182.097656 118.558594 181.582031 C 118.214844 181.070312 117.925781 180.523438 117.6875 179.953125 C 117.453125 179.378906 117.273438 178.789062 117.152344 178.183594 C 117.03125 177.574219 116.96875 176.960938 116.96875 176.34375 C 116.96875 175.722656 117.03125 175.109375 117.152344 174.503906 C 117.273438 173.894531 117.453125 173.304688 117.6875 172.734375 C 117.925781 172.160156 118.214844 171.617188 118.558594 171.101562 C 118.902344 170.585938 119.296875 170.109375 119.734375 169.671875 C 120.171875 169.234375 120.648438 168.84375 121.164062 168.5 C 121.679688 168.15625 122.222656 167.863281 122.792969 167.628906 C 123.367188 167.390625 123.957031 167.210938 124.5625 167.089844 C 125.171875 166.96875 125.785156 166.910156 126.402344 166.910156 C 127.023438 166.910156 127.636719 166.96875 128.246094 167.089844 C 128.851562 167.210938 129.441406 167.390625 130.015625 167.628906 C 130.585938 167.863281 131.128906 168.15625 131.644531 168.5 C 132.160156 168.84375 132.636719 169.234375 133.074219 169.671875 C 133.511719 170.109375 133.902344 170.585938 134.246094 171.101562 C 134.589844 171.617188 134.882812 172.160156 135.121094 172.734375 C 135.355469 173.304688 135.535156 173.894531 135.65625 174.503906 C 135.777344 175.109375 135.835938 175.722656 135.835938 176.34375 Z M 135.835938 176.34375 "/><path style=" stroke:none;fill-rule:nonzero;fill:#022e43;fill-opacity:1;" d="M 96.582031 166.910156 C 101.789062 166.910156 106.015625 171.132812 106.015625 176.34375 C 106.015625 181.554688 101.789062 185.777344 96.582031 185.777344 C 91.371094 185.777344 87.144531 181.554688 87.144531 176.34375 C 87.144531 171.132812 91.371094 166.910156 96.582031 166.910156 Z M 96.582031 166.910156 "/><path style=" stroke:none;fill-rule:nonzero;fill:#022e43;fill-opacity:1;" d="M 76.191406 176.34375 C 76.191406 176.960938 76.128906 177.574219 76.007812 178.183594 C 75.886719 178.789062 75.710938 179.378906 75.472656 179.953125 C 75.234375 180.523438 74.945312 181.070312 74.601562 181.582031 C 74.257812 182.097656 73.863281 182.574219 73.425781 183.011719 C 72.988281 183.453125 72.511719 183.84375 71.996094 184.1875 C 71.484375 184.53125 70.9375 184.820312 70.367188 185.058594 C 69.792969 185.296875 69.203125 185.472656 68.597656 185.59375 C 67.988281 185.714844 67.375 185.777344 66.757812 185.777344 C 66.136719 185.777344 65.523438 185.714844 64.917969 185.59375 C 64.308594 185.472656 63.71875 185.296875 63.144531 185.058594 C 62.574219 184.820312 62.03125 184.53125 61.515625 184.1875 C 61 183.84375 60.523438 183.453125 60.085938 183.011719 C 59.648438 182.574219 59.257812 182.097656 58.914062 181.582031 C 58.570312 181.070312 58.277344 180.523438 58.039062 179.953125 C 57.804688 179.378906 57.625 178.789062 57.503906 178.183594 C 57.382812 177.574219 57.324219 176.960938 57.324219 176.34375 C 57.324219 175.722656 57.382812 175.109375 57.503906 174.503906 C 57.625 173.894531 57.804688 173.304688 58.039062 172.734375 C 58.277344 172.160156 58.570312 171.617188 58.914062 171.101562 C 59.257812 170.585938 59.648438 170.109375 60.085938 169.671875 C 60.523438 169.234375 61 168.84375 61.515625 168.5 C 62.03125 168.15625 62.574219 167.863281 63.144531 167.628906 C 63.71875 167.390625 64.308594 167.210938 64.917969 167.089844 C 65.523438 166.96875 66.136719 166.910156 66.757812 166.910156 C 67.375 166.910156 67.988281 166.96875 68.597656 167.089844 C 69.203125 167.210938 69.792969 167.390625 70.367188 167.628906 C 70.9375 167.863281 71.484375 168.15625 71.996094 168.5 C 72.511719 168.84375 72.988281 169.234375 73.425781 169.671875 C 73.863281 170.109375 74.257812 170.585938 74.601562 171.101562 C 74.945312 171.617188 75.234375 172.160156 75.472656 172.734375 C 75.710938 173.304688 75.886719 173.894531 76.007812 174.503906 C 76.128906 175.109375 76.191406 175.722656 76.191406 176.34375 Z M 76.191406 176.34375 "/><path style=" stroke:none;fill-rule:nonzero;fill:#38b6ff;fill-opacity:1;" d="M 307.765625 166.910156 C 312.976562 166.910156 317.199219 171.132812 317.199219 176.34375 C 317.199219 181.554688 312.976562 185.777344 307.765625 185.777344 C 302.554688 185.777344 298.332031 181.554688 298.332031 176.34375 C 298.332031 171.132812 302.554688 166.910156 307.765625 166.910156 Z M 307.765625 166.910156 "/><path style=" stroke:none;fill-rule:nonzero;fill:#38b6ff;fill-opacity:1;" d="M 277.941406 166.910156 C 283.152344 166.910156 287.375 171.132812 287.375 176.34375 C 287.375 181.554688 283.152344 185.777344 277.941406 185.777344 C 272.730469 185.777344 268.507812 181.554688 268.507812 176.34375 C 268.507812 171.132812 272.730469 166.910156 277.941406 166.910156 Z M 277.941406 166.910156 "/><path style=" stroke:none;fill-rule:nonzero;fill:#38b6ff;fill-opacity:1;" d="M 248.117188 166.910156 C 253.328125 166.910156 257.554688 171.132812 257.554688 176.34375 C 257.554688 181.554688 253.328125 185.777344 248.117188 185.777344 C 242.910156 185.777344 238.683594 181.554688 238.683594 176.34375 C 238.683594 171.132812 242.910156 166.910156 248.117188 166.910156 Z M 248.117188 166.910156 "/><g clip-rule="nonzero" clip-path="url(#ed4d8372d4)"><path style=" stroke:none;fill-rule:nonzero;fill:#38b6ff;fill-opacity:1;" d="M 187.261719 147.617188 C 182.578125 147.617188 178.78125 151.414062 178.78125 156.097656 L 178.78125 207.035156 C 178.78125 217.761719 170.054688 226.488281 159.328125 226.488281 L 87.597656 226.488281 L 73.832031 241.34375 L 60.070312 226.488281 L 38.917969 226.488281 C 28.191406 226.488281 19.464844 217.761719 19.464844 207.035156 L 19.464844 144.90625 C 19.464844 134.179688 28.191406 125.453125 38.917969 125.453125 L 161.417969 125.453125 C 163.675781 119.226562 166.980469 113.5 171.128906 108.492188 L 38.917969 108.492188 C 18.835938 108.492188 2.503906 124.828125 2.503906 144.90625 L 2.503906 207.035156 C 2.503906 227.117188 18.835938 243.453125 38.917969 243.453125 L 52.660156 243.453125 L 73.832031 266.300781 L 95.003906 243.453125 L 159.328125 243.453125 C 179.40625 243.453125 195.742188 227.117188 195.742188 207.035156 L 195.742188 156.097656 C 195.742188 151.414062 191.945312 147.617188 187.261719 147.617188 Z M 187.261719 147.617188 "/></g><g clip-rule="nonzero" clip-path="url(#f602d72077)"><path style=" stroke:none;fill-rule:nonzero;fill:#022e43;fill-opacity:1;" d="M 335.605469 108.492188 L 215.195312 108.492188 C 195.113281 108.492188 178.78125 124.828125 178.78125 144.90625 L 178.78125 173.96875 C 178.78125 178.652344 182.578125 182.449219 187.261719 182.449219 C 191.945312 182.449219 195.742188 178.652344 195.742188 173.96875 L 195.742188 144.90625 C 195.742188 134.179688 204.46875 125.453125 215.195312 125.453125 L 335.605469 125.453125 C 346.332031 125.453125 355.058594 134.179688 355.058594 144.90625 L 355.058594 207.035156 C 355.058594 217.761719 346.332031 226.488281 335.605469 226.488281 L 314.453125 226.488281 L 300.6875 241.34375 L 286.925781 226.488281 L 213.089844 226.488281 C 210.832031 232.714844 207.53125 238.441406 203.386719 243.453125 L 279.519531 243.453125 L 300.6875 266.300781 L 321.859375 243.453125 L 335.605469 243.453125 C 355.6875 243.453125 372.019531 227.117188 372.019531 207.035156 L 372.019531 144.90625 C 372.019531 124.828125 355.6875 108.492188 335.605469 108.492188 Z M 335.605469 108.492188 "/></g></g></svg>